<svg id="Layer_1" data-name="Layer 1" xmlns="http://www.w3.org/2000/svg" viewBox="0 0 97.22 31.24"><defs><style>.cls-1{fill:#0d67b1;fill-rule:evenodd;}</style></defs><title>Untitled-1</title><path class="cls-1" d="M51.15,22.19H47.83l6.61-11.45h1.77l4.14,7.18,4.15-7.18h1.77l4.94,8.56,7.07-5.74H71.34V10.69h11.5v2.88l-7.08,5.74h10.9l5.83-10.1,9.05,15.66-1.66,2.87h-64Q33,32.68,30.2,37.61H4.32V6.37H41.58L39.92,9.25H8.64v9.87h8v5.75h-8v9.87h19.9q2.84-4.94,5.69-9.87H90.51l2-3.44,2,3.44H98l-5.48-9.48-3.92,6.8h-19L65.39,15l-4.15,7.18H59.47L55.32,15l-4.17,7.23ZM22.08,18.35v7.29L28.4,22l-6.32-3.64Zm21.17-9.1h2.87V6.37H44.91L43.25,9.25Zm0,1.44v11.5h2.87V10.69Z" transform="translate(-4.32 -6.37)"/></svg>