<svg width="119" height="41" viewBox="0 0 119 41" fill="none" xmlns="http://www.w3.org/2000/svg">
<path fill-rule="evenodd" clip-rule="evenodd" d="M57.3212 20.6459H53.2575L61.3483 5.81231H63.5148L68.5823 15.1141L73.662 5.81231H75.8285L81.8752 16.9019L90.5291 9.46565H82.0344V5.74754H96.1107V9.4786L87.4446 16.9148H100.786L107.923 3.83019L119 24.1179L116.968 27.836H38.6303C36.2802 32.1025 33.9627 36.3647 31.6778 40.6226H0V0.15094H45.6073L43.5754 3.88201H5.2878V16.6687H15.08V24.1179H5.2878V36.9045H29.646C31.9635 32.638 34.285 28.3758 36.6107 24.1179H105.499L107.947 19.6613L110.395 24.1179H114.667L107.959 11.8364L103.161 20.6459H79.9045L74.7514 11.3312L69.6717 20.6329H67.5051L62.4254 11.3312L57.3212 20.6977V20.6459ZM21.7387 15.6711V25.1154L29.4746 20.3997L21.7387 15.6841V15.6711ZM47.6514 3.88201H51.1644V0.15094H49.6833L47.6514 3.88201V3.88201ZM47.6514 5.74754V20.6459H51.1644V5.74754H47.6514Z" fill="white"/>
</svg>
