<svg width="35" height="37" viewBox="0 0 35 37" fill="none" xmlns="http://www.w3.org/2000/svg">
<g clip-path="url(#clip0)">
<path d="M34.599 17.3825C34.5986 17.3821 34.5983 17.3816 34.5978 17.3812L27.4539 10.0035C26.9188 9.45082 26.0531 9.45288 25.5204 10.0083C24.9877 10.5637 24.9898 11.462 25.525 12.0148L30.3213 16.968H1.36719C0.61209 16.968 0 17.6032 0 18.3868C0 19.1704 0.61209 19.8056 1.36719 19.8056H30.3213L25.525 24.7588C24.9899 25.3116 24.9878 26.2099 25.5205 26.7653C26.0532 27.3208 26.9189 27.3227 27.454 26.7701L34.5978 19.3924C34.5983 19.392 34.5986 19.3915 34.5991 19.3911C35.1345 18.8365 35.1328 17.9353 34.599 17.3825Z" fill="white"/>
</g>
<defs>
<clipPath id="clip0">
<rect width="35" height="36.3208" fill="white" transform="translate(0 0.22641)"/>
</clipPath>
</defs>
</svg>
